<?xml version="1.0" standalone="no"?>
<!DOCTYPE svg PUBLIC "-//W3C//DTD SVG 20010904//EN"
 "http://www.w3.org/TR/2001/REC-SVG-20010904/DTD/svg10.dtd">
<svg version="1.0" xmlns="http://www.w3.org/2000/svg"
 width="192.000000pt" height="192.000000pt" viewBox="0 0 192.000000 192.000000"
 preserveAspectRatio="xMidYMid meet">
<metadata>
Created by potrace 1.16, written by Peter Selinger 2001-2019
</metadata>
<g transform="translate(0.000000,192.000000) scale(0.100000,-0.100000)"
fill="#000000" stroke="none">
<path d="M590 1810 c-128 -28 -196 -57 -240 -105 -23 -25 -25 -34 -25 -122 l0
-95 35 -30 c41 -35 106 -65 172 -79 43 -10 48 -13 48 -39 0 -31 -8 -35 -120
-66 -83 -22 -276 -82 -314 -97 -49 -18 -96 -67 -123 -126 -23 -50 -25 -64 -21
-165 3 -100 6 -116 33 -166 17 -30 53 -78 80 -107 l50 -52 -26 -31 c-14 -17
-39 -56 -55 -86 -25 -48 -29 -67 -29 -134 0 -71 3 -82 30 -121 17 -23 52 -56
78 -72 163 -100 385 58 333 236 -9 29 -34 80 -57 115 -23 35 -40 64 -38 66 2
1 33 11 69 21 118 33 582 185 735 240 79 29 118 37 186 40 95 4 157 28 223 85
19 17 67 42 108 56 104 36 134 58 176 126 19 31 22 49 22 140 0 124 -15 168
-85 246 -72 80 -164 113 -252 90 -26 -7 -103 -13 -170 -13 -120 0 -123 0 -124
23 -1 12 -3 27 -4 32 -1 6 -3 19 -4 30 -2 32 -61 87 -126 115 -139 62 -393 82
-565 45z m345 -30 c76 -11 177 -41 158 -47 -6 -2 -48 3 -93 11 -102 20 -303
20 -391 2 -174 -37 -217 -114 -104 -184 l46 -29 -64 -21 c-76 -26 -85 -27
-109 -5 -14 12 -18 31 -18 83 0 59 3 69 28 92 49 46 159 87 277 101 63 8 203
6 270 -3z m-230 -56 c20 -15 20 -16 -4 -12 -14 2 -26 9 -29 16 -5 16 9 15 33
-4z m125 -48 c0 -40 -51 -83 -84 -70 -9 3 -36 -6 -60 -20 -53 -31 -85 -33
-114 -7 l-22 18 42 12 c24 7 54 11 68 9 20 -2 26 2 28 22 5 36 29 50 89 50 39
0 53 -4 53 -14z m197 -72 c22 -9 21 -11 -20 -33 -52 -28 -77 -25 -127 18 l-35
29 80 -3 c44 -1 90 -7 102 -11z m-310 -60 c-3 -3 -12 -4 -19 -1 -8 3 -5 6 6 6
11 1 17 -2 13 -5z m1021 -23 c121 -62 189 -254 133 -378 -27 -59 -57 -76 -112
-64 -69 16 -75 14 -95 -31 -19 -41 -59 -90 -99 -119 -11 -8 -3 6 17 30 42 49
72 126 65 168 -4 25 -4 24 -6 -7 -1 -40 -40 -128 -64 -148 -13 -11 -16 -9 -22
20 -8 36 -31 68 -50 68 -7 0 -18 7 -26 16 -11 13 -16 7 -35 -46 -26 -73 -62
-114 -124 -141 -53 -24 -890 -304 -938 -314 -21 -4 -38 -2 -47 5 -23 19 -18
29 20 36 39 7 85 48 113 98 12 22 17 54 16 111 0 82 -14 124 -66 198 -31 43
-115 87 -168 87 -44 0 -110 -29 -110 -49 0 -5 20 -51 45 -103 28 -58 54 -132
68 -197 l24 -104 -34 -34 -34 -34 -28 20 c-45 33 -98 96 -122 148 -19 39 -23
66 -23 143 -1 82 2 102 24 144 14 27 39 60 56 73 28 21 182 73 427 144 l77 22
0 45 0 45 61 -7 c34 -3 95 -6 135 -6 l74 0 0 -95 c0 -55 4 -95 10 -95 20 0 40
48 50 120 6 40 12 75 14 77 2 2 37 12 77 23 125 32 152 44 192 84 38 37 42 38
91 33 45 -4 111 -29 193 -71 12 -6 35 -28 52 -50 17 -21 31 -34 31 -29 0 12
-53 88 -88 125 -14 15 -24 30 -21 32 2 2 29 11 59 20 67 19 135 14 188 -13z
m-213 -516 c0 -11 -8 -21 -17 -23 -14 -3 -18 3 -18 23 0 20 4 26 18 23 9 -2
17 -12 17 -23z m-1346 -567 c0 -7 -6 -43 -12 -81 l-12 -67 -24 16 c-20 14 -22
23 -18 56 3 21 12 50 21 63 17 26 46 34 45 13z"/>
<path d="M1294 1492 c-20 -14 -25 -45 -9 -68 20 -31 40 -30 61 1 15 23 15 27
0 50 -17 25 -32 31 -52 17z m41 -42 c0 -36 -29 -33 -33 3 -3 23 0 28 15 25 12
-2 18 -12 18 -28z"/>
<path d="M1464 1283 c-12 -45 28 -80 61 -53 19 16 19 45 -1 64 -24 25 -53 20
-60 -11z m60 -10 c4 -9 2 -21 -3 -26 -15 -15 -41 0 -41 23 0 25 35 28 44 3z"/>
</g>
</svg>
